<svg width="48" height="48" viewBox="0 0 48 48" fill="none" xmlns="http://www.w3.org/2000/svg">
<g id="Logo" clip-path="url(#clip0_2336_7367)">
<path id="Vector" d="M24.4432 0H24.8619C25.3827 0.0268508 25.9253 0.0444199 26.4232 0.0878453C31.2268 0.506188 35.7815 2.49448 39.4694 5.59691C41.2643 7.10674 42.8287 8.88751 44.1627 10.9392C48.3371 17.3586 49.1579 25.6797 46.3104 32.7759C44.1912 38.0576 40.2729 42.5085 35.2021 45.1631C32.0672 46.804 28.6064 47.7776 25.0687 47.9509C24.7388 47.9671 24.4088 47.9834 24.0789 48H23.7928C23.3493 47.9812 22.9061 47.958 22.4632 47.9304C21.7054 47.8835 20.9527 47.7943 20.2051 47.6625C19.8619 47.6022 19.5194 47.5378 19.1778 47.4693C14.0035 46.4327 9.33182 43.7032 5.85613 39.7442C2.67712 36.1236 0.623533 31.5371 0.0918203 26.7497C0.0690578 26.5449 0.0549142 26.3244 0.0493893 26.0884C0.0115993 24.4442 -0.00862174 22.9518 0.0725937 21.3554C0.0843064 21.126 0.104527 20.9062 0.133257 20.696C1.0432 14.036 4.72608 8.00088 10.2839 4.18508C13.4008 2.04519 16.8345 0.702099 20.585 0.155801C20.8409 0.118674 21.2197 0.0886188 21.7213 0.0656354C22.1162 0.0477348 22.7764 0.0380111 23.7017 0.0364641C23.8197 0.0362431 24.0668 0.0240884 24.4432 0ZM18.9779 6.46177C26.8127 4.24144 35.0582 7.42077 39.4193 14.282C39.4257 14.2922 39.4349 14.296 39.4468 14.2936C40.4695 14.0735 41.4849 13.8398 42.5141 13.6452C42.5245 13.6432 42.528 13.6371 42.5244 13.627C42.4066 13.2961 42.2922 13.0361 42.181 12.847C41.8393 12.2653 41.3981 11.6286 40.8573 10.9369C38.8593 8.38022 36.4145 6.36431 33.5228 4.88917C30.8347 3.51779 27.9278 2.74939 24.8907 2.64928C22.2043 2.56044 19.5719 2.83923 17.0576 3.74354C16.7993 3.83635 16.501 3.95901 16.2232 4.06707C11.5243 5.89624 7.56066 9.37856 5.16994 13.8202C5.16901 13.822 5.16849 13.8239 5.16842 13.8259C5.16835 13.8279 5.16873 13.8299 5.16953 13.8317C5.17033 13.8335 5.17154 13.8351 5.17305 13.8363C5.17456 13.8375 5.17633 13.8384 5.17823 13.8388C6.24596 14.0877 7.32928 14.2667 8.40033 14.5008C8.40696 14.5021 8.41215 14.4998 8.41591 14.4938C10.7814 10.5994 14.5952 7.70387 18.9779 6.46177ZM20.1951 11.9725C25.2285 10.3684 30.5977 12.1422 33.8741 16.2182C33.8786 16.2238 33.8848 16.2277 33.8917 16.2294C33.8985 16.2312 33.9058 16.2306 33.9123 16.2278C34.8414 15.84 35.7779 15.4618 36.7339 15.1525C36.7505 15.1472 36.755 15.1367 36.7475 15.121C36.4226 14.4401 35.883 13.8792 35.3785 13.3299C33.3878 11.162 30.7094 9.6305 27.8841 8.85282C27.6733 8.79492 27.458 8.74552 27.2383 8.70464C24.6955 8.23326 22.0518 8.27039 19.5607 9.00331C18.8758 9.20453 18.2032 9.47569 17.5531 9.77039C14.936 10.9558 12.6809 12.8377 11.0901 15.2337C11.089 15.2352 11.0884 15.2369 11.0881 15.2387C11.0878 15.2405 11.088 15.2423 11.0885 15.244C11.0891 15.2457 11.09 15.2473 11.0912 15.2486C11.0925 15.25 11.094 15.251 11.0957 15.2516L13.9396 16.2941C13.9447 16.2961 13.9503 16.2963 13.9555 16.2948C13.9608 16.2933 13.9654 16.2902 13.9687 16.2859C15.5516 14.2518 17.7414 12.7545 20.1951 11.9725ZM20.8041 17.7305C23.4892 16.3555 26.5992 16.8975 28.8119 18.8954C28.8138 18.897 28.8161 18.898 28.8186 18.8982C28.8211 18.8985 28.8236 18.8979 28.8259 18.8967C29.6977 18.413 30.5758 17.9417 31.3976 17.3785C31.4046 17.3736 31.4053 17.368 31.3996 17.3615C29.9572 15.7813 28.0614 14.6546 25.9667 14.2067C25.7632 14.1634 25.5446 14.1326 25.311 14.1143C23.8465 13.9999 22.3432 13.9843 20.9367 14.4749C19.2358 15.0683 17.6118 16.0064 16.5036 17.4607C16.4959 17.4708 16.4977 17.4788 16.5089 17.4845C17.3699 17.9252 18.2177 18.3901 19.0522 18.8791C19.0569 18.8819 19.0624 18.8832 19.0678 18.8827C19.0733 18.8822 19.0785 18.88 19.0826 18.8765C19.6148 18.4274 20.1886 18.0454 20.8041 17.7305ZM43.8398 16.1854C40.5481 16.4947 37.3883 17.6523 34.3826 18.9706C34.1723 19.0628 33.9718 19.1555 33.7813 19.2487C31.1576 20.5316 28.685 22.1314 26.4129 23.9758C26.3771 24.005 26.3383 24 26.2992 24.0331C26.2358 24.0869 26.172 24.1393 26.108 24.1906C26.1026 24.1948 26.1022 24.1997 26.1066 24.2052C26.7756 25.0203 27.5761 25.809 28.3306 26.5916C28.3381 26.5996 28.3462 26.6 28.3548 26.5929C29.4861 25.6546 30.6755 24.7969 31.923 24.0199C31.9638 23.9947 31.9999 24.0023 32.0453 23.9748C35.9951 21.5538 40.2677 20.0073 44.8631 19.3352C44.8691 19.3344 44.8714 19.331 44.8701 19.3253C44.611 18.257 44.2739 17.2141 43.8587 16.1967C43.8573 16.1931 43.8546 16.19 43.8512 16.188C43.8478 16.1859 43.8438 16.185 43.8398 16.1854ZM10.9449 18.0477C8.69569 17.2445 6.37922 16.6863 4.00475 16.4178C3.99237 16.4162 3.98364 16.4212 3.97856 16.4327C3.56751 17.333 3.27171 18.2699 3.09116 19.2434C3.09064 19.246 3.09067 19.2486 3.09123 19.2512C3.0918 19.2538 3.09289 19.2562 3.09444 19.2584C3.09599 19.2605 3.09797 19.2623 3.10026 19.2637C3.10254 19.265 3.10509 19.2659 3.10773 19.2663C5.66398 19.5878 8.15425 20.1833 10.5786 21.0527C12.6726 21.8039 14.6967 22.8063 16.5849 23.9818C16.6197 24.0033 16.6581 23.994 16.6826 24.0093C20.7298 26.5515 24.1193 29.9062 26.7278 33.9113C28.7334 36.9905 30.1767 40.4692 31.073 44.045C31.0735 44.0471 31.0744 44.049 31.0757 44.0507C31.077 44.0524 31.0787 44.0538 31.0805 44.0549C31.0824 44.0559 31.0845 44.0565 31.0866 44.0567C31.0888 44.0569 31.0909 44.0566 31.0929 44.0559C32.0165 43.744 32.8933 43.3296 33.7764 42.9206C33.7801 42.9188 33.7832 42.9158 33.785 42.9121C33.7869 42.9083 33.7875 42.9041 33.7866 42.9C33.1916 40.0482 32.0108 37.3909 30.6895 34.8119C30.5843 34.6069 30.4799 34.412 30.3762 34.2275C28.1608 30.2832 25.2968 26.8803 21.7843 24.0189C21.7541 23.9944 21.7177 23.9997 21.6829 23.9712C18.4502 21.364 14.8551 19.4443 10.9449 18.0477ZM26.5034 20.403C25.0011 19.3701 23.0596 19.3657 21.5012 20.2899C21.4991 20.2912 21.4973 20.2928 21.496 20.2948C21.4946 20.2968 21.4938 20.2991 21.4934 20.3016C21.4931 20.304 21.4933 20.3064 21.494 20.3088C21.4947 20.3111 21.4959 20.3133 21.4976 20.3151C22.2524 21.1475 23.2038 21.7558 24.1038 22.4158C24.113 22.4224 24.1221 22.4221 24.1309 22.4148C24.9219 21.7548 25.7344 21.12 26.5054 20.4365C26.5078 20.4343 26.5098 20.4317 26.511 20.4287C26.5123 20.4257 26.5128 20.4225 26.5126 20.4192C26.5124 20.416 26.5115 20.4129 26.5099 20.41C26.5083 20.4072 26.5061 20.4048 26.5034 20.403ZM3.02088 24.9981C3.23105 25.0177 3.49989 25.071 3.6421 25.0936C5.55259 25.3939 7.39746 25.8955 9.17668 26.5982C12.8536 28.0511 16.0571 30.2125 18.7873 33.0825C21.9965 36.4555 24.2884 40.5902 25.3701 45.1316C25.371 45.1356 25.3732 45.1391 25.3764 45.1417C25.3796 45.1443 25.3835 45.1457 25.3876 45.1459C26.4404 45.1856 27.5025 45.0494 28.5292 44.826C28.5308 44.8256 28.5324 44.8249 28.5337 44.824C28.5351 44.823 28.5363 44.8218 28.5372 44.8204C28.5381 44.8189 28.5387 44.8174 28.539 44.8157C28.5392 44.814 28.5392 44.8124 28.5388 44.8107C27.5291 40.6867 25.7576 36.9256 23.2243 33.5274C23.0241 33.2591 22.8179 32.9957 22.6057 32.7371C19.4745 28.9217 15.4873 25.9041 10.9203 24.0156C10.8729 23.996 10.8159 24.007 10.7811 23.992C8.20873 22.9124 5.47525 22.1377 2.68011 21.958C2.67869 21.9579 2.67726 21.958 2.6759 21.9585C2.67454 21.9589 2.67329 21.9597 2.6722 21.9606C2.67112 21.9616 2.67023 21.9628 2.6696 21.9641C2.66896 21.9654 2.66859 21.9668 2.66851 21.9683C2.60386 22.8925 2.57105 23.8197 2.6211 24.7452C2.62939 24.8987 2.89558 24.9865 3.02088 24.9981ZM45.2224 22.0449C44.1968 22.1241 43.1794 22.2988 42.1827 22.5444C40.7186 22.9051 39.2945 23.3845 37.9104 23.9828C37.8577 24.0053 37.806 23.9947 37.7503 24.0179C34.9362 25.1838 32.2966 26.7093 30.051 28.7387C30.0396 28.7488 30.0382 28.7602 30.0471 28.7728L31.7161 31.201C31.7214 31.2087 31.728 31.2098 31.7357 31.2043C32.454 30.6743 33.2337 30.0341 33.8619 29.5943C37.26 27.2145 41.157 25.6724 45.2523 25.027C45.2559 25.0264 45.2592 25.0246 45.2616 25.0219C45.264 25.0192 45.2654 25.0157 45.2655 25.012C45.2931 24.0302 45.2872 23.0485 45.2476 22.0671C45.247 22.0509 45.2386 22.0435 45.2224 22.0449ZM19.3949 44.8422C20.4706 45.0613 21.5781 45.1697 22.6764 45.2221C22.6883 45.2228 22.6927 45.2172 22.6896 45.2055C21.0239 39.1051 16.9737 33.8049 11.4991 30.6461C11.3108 30.5373 11.1171 30.4308 10.918 30.3265C8.41326 29.0128 5.7411 27.9371 2.92309 27.6935C2.92072 27.6933 2.91832 27.6936 2.91609 27.6944C2.91385 27.6953 2.91184 27.6966 2.91018 27.6984C2.90853 27.7001 2.90728 27.7022 2.90653 27.7045C2.90578 27.7068 2.90555 27.7093 2.90585 27.7117C3.00574 28.4856 3.1769 29.2398 3.41933 29.9741C3.50398 30.2301 3.59558 30.4835 3.69414 30.7346C3.74055 30.8528 3.82342 30.9359 3.94276 30.9839C3.98961 31.0027 4.03757 31.0187 4.08663 31.0319C4.43867 31.1271 4.83679 31.2199 5.14574 31.3074C11.9025 33.2254 17.0851 38.2684 19.3757 44.8256C19.379 44.8347 19.3854 44.8402 19.3949 44.8422ZM43.9992 31.1191C44.5687 30.0928 44.7855 28.9482 44.9804 27.8042C44.9824 27.792 44.9773 27.7865 44.9652 27.7876C44.6372 27.8152 44.3149 27.8639 43.9982 27.9335C43.2944 28.0882 42.6009 28.2799 41.9178 28.5086C38.6708 29.5959 35.6171 31.2792 33.0961 33.6106C33.0939 33.6127 33.0925 33.6154 33.092 33.6185C33.0915 33.6215 33.092 33.6247 33.0935 33.6275C33.5937 34.5501 34.0187 35.5091 34.499 36.4429C34.5047 36.4539 34.512 36.4552 34.5209 36.4468C37.1728 33.9146 40.4354 32.098 43.975 31.138C43.9802 31.1367 43.985 31.1343 43.9891 31.131C43.9933 31.1278 43.9967 31.1237 43.9992 31.1191ZM15.8718 43.4327C13.8444 38.9675 9.83602 35.6463 5.23624 34.0929C5.23416 34.0922 5.23191 34.0922 5.22977 34.0927C5.22764 34.0932 5.22571 34.0944 5.22423 34.0959C5.22275 34.0975 5.22177 34.0995 5.22144 34.1016C5.2211 34.1037 5.2214 34.1059 5.22232 34.1078C5.49746 34.7175 5.82497 35.2982 6.20353 35.8502C8.45502 39.1336 11.5528 41.8114 15.2138 43.4062C15.4502 43.5093 15.7001 43.5686 15.9494 43.6359C15.951 43.6363 15.9527 43.6362 15.9543 43.6357C15.9558 43.6352 15.9572 43.6342 15.9583 43.6329C15.9594 43.6317 15.9601 43.6301 15.9603 43.6285C15.9605 43.6268 15.9603 43.6252 15.9597 43.6236C15.9303 43.5604 15.901 43.4968 15.8718 43.4327ZM42.4077 34.509C39.7376 35.4371 37.4579 37.1407 35.5565 39.2012C35.5518 39.2061 35.5504 39.2117 35.5522 39.2181C35.7438 39.9491 35.9506 40.689 36.2579 41.3804C36.2639 41.3935 36.2726 41.3958 36.2841 41.3874C38.2177 40.014 39.9083 38.3281 41.3098 36.4193C41.7517 35.8177 42.1432 35.2217 42.4213 34.5232C42.422 34.5213 42.4222 34.5192 42.4218 34.5172C42.4214 34.5152 42.4204 34.5133 42.419 34.5118C42.4176 34.5103 42.4158 34.5093 42.4138 34.5088C42.4118 34.5083 42.4097 34.5083 42.4077 34.509Z" fill="#779AC5"/>
</g>
<defs>
<clipPath id="clip0_2336_7367">
<rect width="48" height="48" fill="white"/>
</clipPath>
</defs>
</svg>
