<svg width="348" height="194" viewBox="0 0 348 194" fill="none" xmlns="http://www.w3.org/2000/svg">
<path d="M186.724 138.924L172.711 147.021L172.595 62.5974L186.724 54.58V138.924Z" fill="#EAEAEA"/>
<path d="M172.71 147.021L158.73 138.935V54.4346L172.594 62.5976L172.71 147.021Z" fill="#EAEAEA"/>
<path d="M186.723 54.58L172.594 62.5975L158.73 54.4345L172.747 46.5443L186.723 54.58Z" fill="#EAEAEA"/>
<path d="M140.375 128.342L126.155 120.113V36.3007L140.335 28.2795L140.375 128.342Z" fill="#EAEAEA"/>
<path d="M126.159 120.113L112.139 112.023L111.979 28.3378L126.155 36.3007L126.159 120.113Z" fill="#EAEAEA"/>
<path d="M140.335 28.2795L126.155 36.3042L111.979 28.3377L126.199 20.7021L140.335 28.2795Z" fill="#EAEAEA"/>
<path d="M80.3134 93.638L94.5186 101.848L94.5114 54.2599L80.3062 61.8045L80.3134 93.638Z" fill="#EAEAEA"/>
<path d="M66.1367 85.4495L80.2983 93.6271L80.3201 61.8081L66.2131 54.0817L66.1367 85.4495Z" fill="#EAEAEA"/>
<path d="M80.3204 61.8044L94.511 54.2598L80.3131 47.2281L66.2134 54.0816L80.3204 61.8044Z" fill="#EAEAEA"/>
<path d="M42.6558 71.932L66.1917 64.9258L66.1517 85.4606L42.6558 71.932Z" fill="#EAEAEA"/>
<path d="M172.65 174.373L42.5874 99.4182L42.5983 81.2625L172.722 156.363L172.65 174.373Z" fill="#EAEAEA"/>
<path d="M172.649 174.373L305.607 97.6758L305.611 79.7493L172.719 156.399L172.649 174.373Z" fill="#EAEAEA"/>
<path d="M172.725 0C163.093 0 155.286 7.8065 155.286 17.4391C155.286 27.0718 163.093 34.8783 172.725 34.8783C182.358 34.8783 190.164 27.0718 190.164 17.4391C190.164 7.8065 182.358 0 172.725 0ZM172.725 26.7807C167.563 26.7807 163.38 22.5974 163.38 17.4355C163.38 12.2736 167.563 8.09024 172.725 8.09024C177.887 8.09024 182.071 12.2736 182.071 17.4355C182.071 22.5974 177.887 26.7807 172.725 26.7807Z" fill="#EAEAEA"/>
<path d="M7.69009 81.2299H0V89.0582H7.69009V81.2299Z" fill="#EAEAEA"/>
<path d="M20.0656 81.2299H12.3755V89.0582H20.0656V81.2299Z" fill="#EAEAEA"/>
<path d="M31.5646 81.2299H23.8745V89.0582H31.5646V81.2299Z" fill="#EAEAEA"/>
<path d="M324.126 79.52H316.436V87.3483H324.126V79.52Z" fill="#EAEAEA"/>
<path d="M336.499 79.52H328.809V87.3483H336.499V79.52Z" fill="#EAEAEA"/>
<path d="M347.996 79.52H340.306V87.3483H347.996V79.52Z" fill="#EAEAEA"/>
<path d="M305.631 70.2585L281.961 65.0348L281.994 83.9799L305.631 70.2585Z" fill="#EAEAEA"/>
<path d="M267.785 92.1574L253.642 100.411L253.663 54.2599L267.756 61.7972L267.785 92.1574Z" fill="#EAEAEA"/>
<path d="M281.988 83.9727L267.764 92.1684L267.746 61.8082L281.962 54.0853L281.988 83.9727Z" fill="#EAEAEA"/>
<path d="M267.749 61.8081L253.664 54.2598L267.738 47.2827L281.962 54.0816L267.749 61.8081Z" fill="#EAEAEA"/>
<path d="M207.767 126.81L221.888 118.647L221.899 36.2897L207.818 28.2795L207.767 126.81Z" fill="#EAEAEA"/>
<path d="M221.889 118.647L236.003 110.477L236.174 28.3378L221.889 36.2898V118.647Z" fill="#EAEAEA"/>
<path d="M207.818 28.2794L221.893 36.2969L236.174 28.3377L221.864 20.6985L207.818 28.2794Z" fill="#EAEAEA"/>
<path d="M51.5421 122.387L50.8728 122.001L55.6382 110.95L59.6724 113.285L53.0482 126.901L49.043 124.58L42.979 103.62L47.2169 106.075L51.5421 122.394V122.387Z" fill="#EAEAEA"/>
<path d="M61.5999 114.398L65.5032 116.657L65.2231 133.944L61.3198 131.685L61.5999 114.398Z" fill="#EAEAEA"/>
<path d="M68.6835 126.872L76.8756 131.616L76.821 135.09L68.6289 130.346L68.6835 126.872Z" fill="#EAEAEA"/>
<path d="M79.9928 134.468C80.0219 132.62 80.2729 130.939 80.7495 129.426C81.226 127.912 81.899 126.65 82.7793 125.646L86.4025 127.741C85.5876 128.876 84.9619 130.204 84.5218 131.728C84.0816 133.253 83.8488 134.904 83.8197 136.683C83.7906 138.462 83.9688 140.353 84.3508 142.354C84.7327 144.355 85.3039 146.377 86.0678 148.422L82.4446 146.326C81.6116 144.311 80.9896 142.292 80.5712 140.273C80.1529 138.254 79.9601 136.319 79.9892 134.471L79.9928 134.468Z" fill="#EAEAEA"/>
<path d="M88.8257 130.164L95.6319 134.104C97.4289 135.144 98.8149 136.312 99.7861 137.61C100.757 138.905 101.234 140.219 101.212 141.55C101.201 142.292 101.034 142.881 100.717 143.318C100.401 143.755 99.9644 143.995 99.4078 144.038C98.8549 144.082 98.2183 143.915 97.498 143.533V143.274C98.9385 144.158 100.059 145.231 100.859 146.486C101.66 147.745 102.049 149.018 102.027 150.317C102.001 151.87 101.383 152.729 100.172 152.892C98.9604 153.052 97.2652 152.503 95.0898 151.245L88.542 147.454L88.8221 130.168L88.8257 130.164ZM98.0837 147.738C98.0946 146.978 97.8472 146.25 97.3416 145.555C96.8359 144.86 96.0829 144.224 95.0898 143.649L90.5427 141.015L90.5864 138.269L94.8243 140.724C95.3372 141.023 95.7883 141.197 96.1775 141.244C96.5668 141.295 96.8614 141.219 97.0615 141.012C97.2616 140.804 97.367 140.488 97.3743 140.055C97.3852 139.433 97.1924 138.836 96.7923 138.265C96.3922 137.694 95.821 137.192 95.068 136.756L92.5507 135.297L92.3689 146.676L95.0135 148.207C97.0324 149.378 98.0582 149.218 98.08 147.734L98.0837 147.738Z" fill="#EAEAEA"/>
<path d="M104.348 149.771L104.519 139.247L108.422 141.506L108.255 151.976C108.237 153.169 108.506 154.246 109.074 155.21C109.637 156.174 110.459 156.967 111.536 157.592C112.631 158.225 113.471 158.396 114.057 158.098C114.639 157.8 114.941 157.054 114.963 155.861L115.13 145.388L119.008 147.632L118.837 158.156C118.812 159.658 118.502 160.779 117.902 161.514C117.302 162.248 116.458 162.587 115.37 162.532C114.283 162.478 112.984 162.016 111.478 161.143C109.972 160.27 108.684 159.236 107.615 158.043C106.545 156.85 105.727 155.548 105.163 154.14C104.599 152.732 104.326 151.277 104.352 149.771H104.348Z" fill="#EAEAEA"/>
<path d="M122.089 149.422L125.992 151.681L125.712 168.967L121.809 166.708L122.089 149.422Z" fill="#EAEAEA"/>
<path d="M129.331 153.616L133.234 155.875L133.012 169.717L141.154 174.431L141.099 177.88L129.055 170.906L129.335 153.62L129.331 153.616Z" fill="#EAEAEA"/>
<path d="M143.558 161.856L150.03 165.603C151.983 166.734 153.646 168.04 155.021 169.528C156.396 171.012 157.447 172.612 158.171 174.322C158.895 176.032 159.244 177.792 159.215 179.608C159.186 181.423 158.789 182.762 158.022 183.627C157.254 184.493 156.17 184.864 154.763 184.748C153.355 184.631 151.678 184.006 149.724 182.878L143.278 179.146L143.558 161.859V161.856ZM155.134 177.265C155.159 175.624 154.708 174.082 153.784 172.638C152.856 171.194 151.536 169.975 149.826 168.986L147.411 167.589L147.243 177.931L149.684 179.342C151.379 180.324 152.704 180.634 153.66 180.273C154.617 179.91 155.108 178.909 155.134 177.269V177.265Z" fill="#EAEAEA"/>
<path d="M162.877 182.46C162.906 180.681 162.728 178.789 162.346 176.788C161.964 174.788 161.393 172.765 160.629 170.721L164.252 172.816C165.085 174.817 165.707 176.828 166.125 178.858C166.544 180.888 166.737 182.827 166.707 184.675C166.678 186.523 166.427 188.2 165.951 189.706C165.478 191.208 164.801 192.474 163.921 193.5L160.298 191.405C161.113 190.27 161.738 188.942 162.179 187.418C162.619 185.894 162.852 184.242 162.881 182.463L162.877 182.46Z" fill="#EAEAEA"/>
<path d="M175.646 176.625L181.942 173.009C183.747 171.972 185.18 171.623 186.242 171.965C187.301 172.307 187.85 173.296 187.883 174.944C187.905 176.047 187.69 177.134 187.246 178.207C186.799 179.28 186.148 180.281 185.293 181.212C184.438 182.143 183.419 182.951 182.23 183.631L177.69 186.236L177.632 183.249L181.71 180.91C182.524 180.445 183.146 179.881 183.576 179.226C184.009 178.571 184.216 177.873 184.201 177.134C184.187 176.378 183.95 175.923 183.496 175.766C183.041 175.614 182.412 175.766 181.615 176.221L179.076 177.68L179.363 177.214L179.636 190.983L175.977 193.086L175.649 176.625H175.646Z" fill="#EAEAEA"/>
<path d="M190.241 168.247L196.564 164.62C198.368 163.584 199.797 163.231 200.849 163.558C201.9 163.886 202.442 164.864 202.475 166.494C202.497 167.563 202.282 168.629 201.835 169.695C201.387 170.761 200.747 171.75 199.917 172.667C199.088 173.584 198.102 174.369 196.964 175.024L192.278 177.712L192.22 174.777L196.345 172.409C197.16 171.943 197.786 171.379 198.226 170.717C198.666 170.055 198.877 169.364 198.863 168.64C198.848 167.898 198.612 167.458 198.157 167.312C197.702 167.167 197.066 167.327 196.254 167.792L193.937 169.124L194.206 182.623L190.569 184.711L190.241 168.251V168.247ZM195.669 174.268L199.354 172.154L203.552 177.254L199.499 179.579L195.665 174.268H195.669Z" fill="#EAEAEA"/>
<path d="M204.34 168.466C204.315 167.232 204.504 165.97 204.908 164.682C205.311 163.395 205.893 162.136 206.661 160.906C207.425 159.677 208.327 158.549 209.36 157.523C210.393 156.497 211.521 155.635 212.74 154.933C213.976 154.224 215.122 153.787 216.181 153.62C217.239 153.453 218.163 153.536 218.949 153.864C219.735 154.191 220.353 154.762 220.797 155.574C221.241 156.385 221.477 157.407 221.499 158.64C221.521 159.873 221.335 161.136 220.932 162.423C220.528 163.711 219.95 164.962 219.193 166.181C218.436 167.4 217.541 168.524 216.508 169.557C215.475 170.59 214.34 171.463 213.103 172.172C211.867 172.882 210.724 173.318 209.673 173.478C208.622 173.642 207.701 173.558 206.905 173.235C206.108 172.911 205.49 172.343 205.042 171.532C204.598 170.725 204.362 169.702 204.34 168.466ZM208.222 166.239C208.243 167.258 208.462 168.051 208.887 168.615C209.309 169.178 209.88 169.484 210.597 169.531C211.314 169.579 212.128 169.339 213.038 168.815C213.947 168.291 214.755 167.603 215.453 166.741C216.152 165.883 216.697 164.941 217.087 163.918C217.476 162.896 217.661 161.874 217.643 160.855C217.621 159.837 217.4 159.044 216.978 158.48C216.556 157.916 215.984 157.611 215.268 157.563C214.551 157.516 213.736 157.756 212.827 158.28C211.914 158.804 211.11 159.495 210.411 160.353C209.713 161.212 209.167 162.154 208.778 163.176C208.385 164.198 208.203 165.221 208.222 166.239Z" fill="#EAEAEA"/>
<path d="M228.433 157.283L228.219 146.45L231.929 144.322L232.148 155.326C232.173 156.545 231.966 157.72 231.526 158.851C231.085 159.986 230.452 161.026 229.627 161.976C228.797 162.925 227.782 163.747 226.578 164.438C224.527 165.617 222.813 165.868 221.435 165.195L223.508 161.434C224.257 161.903 225.138 161.845 226.145 161.266C226.895 160.837 227.466 160.277 227.866 159.582C228.263 158.887 228.455 158.12 228.437 157.283H228.433Z" fill="#EAEAEA"/>
<path d="M234.857 142.641L245.963 136.268L246.029 139.477L238.586 143.751L238.786 153.795L246.815 149.186L246.88 152.394L235.188 159.106L234.861 142.645L234.857 142.641ZM236.844 148.138L244.265 143.878L244.323 146.839L236.902 151.099L236.844 148.138Z" fill="#EAEAEA"/>
<path d="M247.759 143.569C247.734 142.317 247.919 141.044 248.312 139.746C248.705 138.447 249.269 137.196 250.004 135.992C250.738 134.787 251.608 133.685 252.615 132.681C253.623 131.677 254.747 130.822 255.984 130.113C257.384 129.309 258.661 128.862 259.822 128.771C260.979 128.68 261.921 128.945 262.641 129.56L260.222 133.271C259.72 132.812 259.142 132.587 258.494 132.605C257.843 132.619 257.104 132.867 256.275 133.343C255.347 133.874 254.529 134.566 253.823 135.413C253.114 136.261 252.572 137.192 252.186 138.211C251.804 139.229 251.622 140.266 251.644 141.317C251.666 142.354 251.888 143.154 252.31 143.718C252.732 144.282 253.307 144.58 254.031 144.613C254.754 144.646 255.591 144.391 256.533 143.849C257.348 143.383 258.079 142.783 258.73 142.052C259.382 141.321 259.985 140.411 260.538 139.327L262.976 140.149C262.234 141.674 261.295 143.052 260.171 144.282C259.043 145.511 257.763 146.537 256.333 147.359C254.707 148.294 253.252 148.756 251.968 148.756C250.684 148.756 249.673 148.312 248.93 147.428C248.188 146.548 247.799 145.26 247.766 143.565L247.759 143.569Z" fill="#EAEAEA"/>
<path d="M269.041 126.337L263.77 129.364L263.704 126.083L277.909 117.931L277.975 121.212L272.729 124.224L272.991 137.4L269.306 139.517L269.044 126.341L269.041 126.337Z" fill="#EAEAEA"/>
<path d="M288.106 124.082C288.099 123.722 288.008 123.456 287.829 123.292C287.651 123.129 287.36 123.06 286.949 123.085C286.538 123.114 285.989 123.234 285.301 123.445L284.294 123.722C282.886 124.147 281.805 124.187 281.049 123.849C280.292 123.511 279.903 122.74 279.881 121.539C279.863 120.535 280.088 119.506 280.561 118.454C281.034 117.399 281.707 116.414 282.577 115.49C283.446 114.566 284.468 113.769 285.64 113.096C286.778 112.441 287.844 112.027 288.837 111.848C289.83 111.67 290.656 111.739 291.322 112.056L289.441 115.606C288.364 115.195 287.142 115.38 285.774 116.163C285.076 116.563 284.526 117.025 284.137 117.541C283.744 118.058 283.552 118.582 283.562 119.105C283.573 119.567 283.766 119.833 284.148 119.906C284.526 119.979 285.218 119.869 286.214 119.578L287.171 119.327C288.692 118.887 289.848 118.865 290.638 119.258C291.427 119.655 291.835 120.477 291.86 121.728C291.882 122.765 291.634 123.827 291.122 124.911C290.609 125.995 289.881 127.025 288.935 128C287.993 128.975 286.887 129.826 285.618 130.553C284.381 131.263 283.213 131.714 282.115 131.903C281.016 132.092 280.052 132.019 279.223 131.677L281.027 128.047C282.486 128.542 284.003 128.334 285.581 127.429C286.378 126.97 287 126.443 287.451 125.842C287.899 125.246 288.12 124.657 288.106 124.082Z" fill="#EAEAEA"/>
<path d="M293.216 108.713L294.511 107.97L294.602 112.569L297.301 111.019L297.323 112.165L293.329 114.456L293.216 108.713Z" fill="#EAEAEA"/>
<path d="M298.35 106.926L296.509 107.981L296.487 106.835L301.445 103.991L301.467 105.137L299.634 106.188L299.725 110.786L298.437 111.524L298.346 106.926H298.35Z" fill="#EAEAEA"/>
<path d="M302.176 103.569L304.322 102.336C304.97 101.965 305.526 101.761 305.988 101.721C306.454 101.685 306.814 101.808 307.068 102.088C307.323 102.372 307.458 102.816 307.469 103.416C307.48 104.016 307.367 104.606 307.13 105.181C306.89 105.752 306.545 106.286 306.086 106.781C305.628 107.276 305.075 107.709 304.428 108.083L302.289 109.309L302.176 103.565V103.569ZM306.119 104.209C306.108 103.664 305.944 103.333 305.624 103.213C305.308 103.092 304.864 103.198 304.297 103.522L303.496 103.98L303.565 107.418L304.373 106.952C304.937 106.628 305.37 106.228 305.675 105.748C305.981 105.268 306.13 104.755 306.119 104.209Z" fill="#EAEAEA"/>
<path d="M305.611 79.753V73.889L302.908 75.4714L172.722 150.55L45.3373 76.9993L42.6127 75.4132L42.5981 81.2626L42.82 81.3936H42.8237L172.719 156.399V156.174V156.399L305.607 79.7566V79.753H305.611Z" fill="#EAEAEA"/>
</svg>
