<svg width="150" height="90" viewBox="0 0 652 363" fill="none" xmlns="http://www.w3.org/2000/svg">
<path d="M349.841 260.285L323.587 275.456L323.369 117.282L349.841 102.26V260.285Z" fill="#2B3136"/>
<path d="M323.588 275.456L297.396 260.305V101.987L323.369 117.281L323.588 275.456Z" fill="#2B3136"/>
<path d="M349.841 102.26L323.369 117.281L297.396 101.987L323.656 87.2046L349.841 102.26Z" fill="#2B3136"/>
<path d="M263.004 240.458L236.362 225.042V68.0121L262.929 52.9839L263.004 240.458Z" fill="#2B3136"/>
<path d="M236.369 225.042L210.102 209.884L209.802 53.093L236.362 68.0122L236.369 225.042Z" fill="#2B3136"/>
<path d="M262.929 52.984L236.362 68.0122L209.802 53.093L236.444 38.7872L262.929 52.984Z" fill="#2B3136"/>
<path d="M150.473 175.438L177.087 190.821L177.074 101.66L150.459 115.796L150.473 175.438Z" fill="#2B3136"/>
<path d="M123.913 160.097L150.446 175.418L150.487 115.802L124.056 101.326L123.913 160.097Z" fill="#2B3136"/>
<path d="M150.487 115.796L177.074 101.66L150.473 88.486L124.056 101.326L150.487 115.796Z" fill="#2B3136"/>
<path d="M79.9185 134.77L124.015 121.643L123.94 160.117L79.9185 134.77Z" fill="#2B3136"/>
<path d="M323.472 326.702L79.7896 186.268L79.81 152.252L323.608 292.958L323.472 326.702Z" fill="#2B3136"/>
<path d="M323.472 326.702L572.579 183.004L572.586 149.417L323.601 293.027L323.472 326.702Z" fill="#2B3136"/>
<path d="M323.615 0C305.567 0 290.941 14.6261 290.941 32.6736C290.941 50.7211 305.567 65.3472 323.615 65.3472C341.662 65.3472 356.288 50.7211 356.288 32.6736C356.288 14.6261 341.662 0 323.615 0ZM323.615 50.1759C313.943 50.1759 306.105 42.338 306.105 32.6668C306.105 22.9956 313.943 15.1577 323.615 15.1577C333.286 15.1577 341.124 22.9956 341.124 32.6668C341.124 42.338 333.286 50.1759 323.615 50.1759Z" fill="#2B3136"/>
<path d="M14.408 152.191H0V166.858H14.408V152.191Z" fill="#2B3136"/>
<path d="M37.5945 152.191H23.1865V166.858H37.5945V152.191Z" fill="#2B3136"/>
<path d="M59.138 152.191H44.73V166.858H59.138V152.191Z" fill="#2B3136"/>
<path d="M607.276 148.987H592.868V163.654H607.276V148.987Z" fill="#2B3136"/>
<path d="M630.456 148.987H616.048V163.654H630.456V148.987Z" fill="#2B3136"/>
<path d="M652 148.987H637.592V163.654H652V148.987Z" fill="#2B3136"/>
<path d="M572.626 131.635L528.278 121.848L528.339 157.343L572.626 131.635Z" fill="#2B3136"/>
<path d="M501.717 172.664L475.219 188.129L475.26 101.66L501.663 115.782L501.717 172.664Z" fill="#2B3136"/>
<path d="M528.326 157.329L501.677 172.685L501.643 115.802L528.278 101.333L528.326 157.329Z" fill="#2B3136"/>
<path d="M501.65 115.803L475.26 101.66L501.63 88.5881L528.278 101.326L501.65 115.803Z" fill="#2B3136"/>
<path d="M389.269 237.589L415.726 222.295L415.747 67.9917L389.364 52.9839L389.269 237.589Z" fill="#2B3136"/>
<path d="M415.727 222.295L442.171 206.987L442.491 53.093L415.727 67.9917V222.295Z" fill="#2B3136"/>
<path d="M389.364 52.9838L415.733 68.0052L442.491 53.0929L415.679 38.7803L389.364 52.9838Z" fill="#2B3136"/>
<path d="M96.5691 229.301L95.3151 228.579L104.243 207.873L111.802 212.249L99.3907 237.759L91.8869 233.411L80.5254 194.14L88.4655 198.741L96.5691 229.315V229.301Z" fill="#2B3136"/>
<path d="M115.414 214.334L122.727 218.567L122.202 250.954L114.889 246.722L115.414 214.334Z" fill="#2B3136"/>
<path d="M128.684 237.705L144.032 246.592L143.93 253.101L128.582 244.214L128.684 237.705Z" fill="#2B3136"/>
<path d="M149.873 251.936C149.928 248.473 150.398 245.325 151.291 242.489C152.183 239.654 153.444 237.289 155.094 235.408L161.882 239.334C160.355 241.46 159.183 243.948 158.358 246.804C157.534 249.659 157.097 252.753 157.043 256.086C156.988 259.419 157.322 262.963 158.038 266.712C158.754 270.46 159.824 274.25 161.255 278.08L154.467 274.154C152.906 270.378 151.74 266.596 150.957 262.813C150.173 259.031 149.812 255.405 149.866 251.942L149.873 251.936Z" fill="#2B3136"/>
<path d="M166.421 243.873L179.173 251.254C182.54 253.203 185.137 255.391 186.956 257.824C188.776 260.251 189.669 262.711 189.628 265.206C189.608 266.596 189.294 267.7 188.701 268.518C188.108 269.336 187.29 269.786 186.248 269.867C185.212 269.949 184.019 269.636 182.669 268.92V268.436C185.368 270.092 187.468 272.103 188.967 274.454C190.466 276.812 191.196 279.198 191.155 281.631C191.107 284.541 189.948 286.15 187.679 286.456C185.409 286.756 182.233 285.727 178.158 283.369L165.89 276.267L166.414 243.88L166.421 243.873ZM183.767 276.799C183.787 275.374 183.324 274.011 182.376 272.71C181.429 271.408 180.018 270.215 178.158 269.138L169.638 264.204L169.72 259.058L177.66 263.658C178.621 264.217 179.466 264.544 180.195 264.633C180.925 264.729 181.477 264.585 181.852 264.197C182.226 263.808 182.424 263.215 182.438 262.404C182.458 261.239 182.097 260.121 181.347 259.051C180.598 257.981 179.528 257.041 178.117 256.223L173.4 253.49L173.06 274.809L178.014 277.678C181.797 279.873 183.719 279.573 183.76 276.792L183.767 276.799Z" fill="#2B3136"/>
<path d="M195.503 280.609L195.824 260.891L203.137 265.124L202.823 284.739C202.789 286.974 203.294 288.992 204.357 290.798C205.413 292.604 206.954 294.09 208.971 295.262C211.022 296.448 212.597 296.768 213.694 296.209C214.785 295.651 215.35 294.253 215.391 292.018L215.705 272.396L222.97 276.601L222.65 296.318C222.602 299.133 222.023 301.232 220.898 302.609C219.773 303.986 218.192 304.62 216.154 304.518C214.117 304.415 211.683 303.55 208.862 301.914C206.04 300.278 203.628 298.343 201.624 296.107C199.62 293.872 198.086 291.432 197.03 288.794C195.974 286.156 195.463 283.43 195.51 280.609H195.503Z" fill="#2B3136"/>
<path d="M228.743 279.954L236.056 284.187L235.531 316.574L228.218 312.342L228.743 279.954Z" fill="#2B3136"/>
<path d="M242.312 287.813L249.625 292.045L249.21 317.978L264.463 326.811L264.361 333.272L241.794 320.207L242.319 287.82L242.312 287.813Z" fill="#2B3136"/>
<path d="M268.968 303.25L281.093 310.27C284.753 312.389 287.868 314.836 290.444 317.624C293.02 320.404 294.99 323.403 296.346 326.607C297.702 329.81 298.357 333.109 298.302 336.509C298.248 339.91 297.505 342.419 296.067 344.041C294.629 345.663 292.598 346.358 289.96 346.14C287.322 345.922 284.18 344.749 280.52 342.637L268.443 335.644L268.968 303.257V303.25ZM290.655 332.12C290.703 329.046 289.858 326.157 288.127 323.451C286.389 320.745 283.915 318.462 280.711 316.608L276.186 313.991L275.872 333.368L280.446 336.012C283.622 337.852 286.102 338.431 287.895 337.757C289.687 337.075 290.607 335.201 290.655 332.127V332.12Z" fill="#2B3136"/>
<path d="M305.165 341.846C305.22 338.513 304.886 334.969 304.17 331.221C303.455 327.472 302.384 323.683 300.953 319.853L307.741 323.778C309.302 327.527 310.468 331.296 311.251 335.099C312.035 338.902 312.396 342.535 312.342 345.997C312.287 349.459 311.817 352.601 310.924 355.423C310.038 358.238 308.771 360.609 307.121 362.531L300.333 358.606C301.86 356.479 303.032 353.992 303.857 351.136C304.681 348.28 305.118 345.186 305.172 341.853L305.165 341.846Z" fill="#2B3136"/>
<path d="M329.087 330.921L340.885 324.146C344.266 322.204 346.951 321.55 348.941 322.19C350.924 322.831 351.953 324.685 352.015 327.772C352.056 329.837 351.654 331.875 350.822 333.886C349.984 335.896 348.764 337.77 347.162 339.515C345.56 341.26 343.652 342.773 341.423 344.048L332.918 348.927L332.809 343.332L340.449 338.95C341.976 338.077 343.141 337.021 343.945 335.794C344.756 334.567 345.145 333.259 345.117 331.875C345.09 330.457 344.647 329.606 343.795 329.312C342.943 329.026 341.764 329.312 340.272 330.164L335.514 332.897L336.053 332.025L336.564 357.822L329.708 361.761L329.094 330.921H329.087Z" fill="#2B3136"/>
<path d="M356.432 315.225L368.277 308.429C371.658 306.487 374.336 305.826 376.306 306.439C378.275 307.053 379.291 308.886 379.352 311.939C379.393 313.943 378.991 315.94 378.153 317.937C377.314 319.934 376.115 321.788 374.561 323.505C373.007 325.223 371.16 326.695 369.027 327.922L360.248 332.959L360.139 327.458L367.868 323.022C369.395 322.149 370.567 321.093 371.392 319.852C372.216 318.612 372.612 317.317 372.584 315.961C372.557 314.57 372.114 313.746 371.262 313.473C370.41 313.2 369.218 313.5 367.698 314.373L363.356 316.867L363.861 342.159L357.045 346.072L356.432 315.231V315.225ZM366.6 326.504L373.505 322.544L381.37 332.1L373.777 336.455L366.594 326.504H366.6Z" fill="#2B3136"/>
<path d="M382.848 315.634C382.801 313.323 383.155 310.958 383.912 308.545C384.668 306.133 385.759 303.775 387.197 301.471C388.628 299.167 390.318 297.054 392.254 295.132C394.19 293.21 396.302 291.595 398.586 290.28C400.903 288.951 403.05 288.133 405.033 287.819C407.016 287.506 408.747 287.663 410.22 288.276C411.692 288.889 412.85 289.959 413.682 291.479C414.513 292.999 414.956 294.914 414.997 297.225C415.038 299.535 414.691 301.9 413.934 304.313C413.178 306.726 412.094 309.07 410.676 311.353C409.259 313.637 407.582 315.743 405.646 317.678C403.711 319.614 401.584 321.25 399.267 322.579C396.95 323.908 394.81 324.725 392.84 325.025C390.87 325.332 389.146 325.175 387.653 324.569C386.161 323.962 385.002 322.899 384.164 321.379C383.332 319.866 382.889 317.951 382.848 315.634ZM390.121 311.462C390.162 313.371 390.57 314.857 391.368 315.913C392.158 316.969 393.229 317.542 394.571 317.63C395.914 317.719 397.441 317.269 399.144 316.288C400.848 315.306 402.361 314.018 403.67 312.403C404.979 310.795 406.001 309.029 406.73 307.114C407.459 305.199 407.807 303.284 407.773 301.375C407.732 299.467 407.316 297.981 406.526 296.925C405.735 295.868 404.665 295.296 403.322 295.207C401.98 295.119 400.453 295.569 398.749 296.55C397.038 297.531 395.532 298.826 394.224 300.435C392.915 302.043 391.893 303.809 391.163 305.724C390.427 307.639 390.087 309.554 390.121 311.462Z" fill="#2B3136"/>
<path d="M427.988 294.683L427.585 274.386L434.537 270.399L434.946 291.016C434.994 293.299 434.605 295.501 433.781 297.62C432.956 299.747 431.77 301.696 430.223 303.475C428.669 305.254 426.768 306.794 424.512 308.089C420.668 310.297 417.458 310.767 414.875 309.507L418.759 302.459C420.163 303.338 421.813 303.229 423.701 302.146C425.105 301.342 426.175 300.292 426.924 298.99C427.667 297.688 428.028 296.25 427.994 294.683H427.988Z" fill="#2B3136"/>
<path d="M440.024 267.25L460.832 255.309L460.954 261.321L447.01 269.329L447.385 288.147L462.427 279.511L462.549 285.523L440.644 298.097L440.031 267.257L440.024 267.25ZM443.745 277.548L457.649 269.567L457.758 275.115L443.854 283.096L443.745 277.548Z" fill="#2B3136"/>
<path d="M464.199 268.988C464.151 266.644 464.499 264.258 465.235 261.825C465.971 259.392 467.027 257.047 468.404 254.791C469.781 252.535 471.409 250.47 473.297 248.589C475.185 246.708 477.291 245.107 479.609 243.778C482.233 242.271 484.625 241.433 486.799 241.263C488.966 241.092 490.731 241.59 492.081 242.742L487.549 249.693C486.608 248.835 485.524 248.412 484.311 248.446C483.091 248.473 481.708 248.937 480.154 249.83C478.416 250.825 476.882 252.12 475.56 253.708C474.231 255.296 473.216 257.041 472.493 258.949C471.778 260.857 471.437 262.8 471.478 264.769C471.519 266.712 471.934 268.211 472.725 269.268C473.515 270.324 474.592 270.883 475.949 270.944C477.305 271.006 478.872 270.528 480.638 269.513C482.164 268.641 483.534 267.516 484.754 266.146C485.974 264.776 487.106 263.072 488.142 261.041L492.708 262.582C491.318 265.437 489.559 268.02 487.453 270.324C485.34 272.628 482.941 274.55 480.263 276.09C477.216 277.841 474.49 278.707 472.084 278.707C469.678 278.707 467.784 277.876 466.393 276.219C465.003 274.57 464.274 272.157 464.212 268.981L464.199 268.988Z" fill="#2B3136"/>
<path d="M504.069 236.703L494.194 242.373L494.071 236.226L520.685 220.952L520.808 227.1L510.98 232.743L511.471 257.429L504.567 261.396L504.076 236.71L504.069 236.703Z" fill="#2B3136"/>
<path d="M539.789 232.477C539.775 231.803 539.605 231.305 539.271 230.998C538.937 230.692 538.392 230.562 537.622 230.61C536.852 230.664 535.822 230.889 534.534 231.285L532.646 231.803C530.009 232.6 527.985 232.675 526.567 232.041C525.149 231.407 524.42 229.962 524.379 227.713C524.345 225.832 524.768 223.903 525.654 221.934C526.54 219.957 527.8 218.11 529.429 216.379C531.058 214.648 532.973 213.155 535.168 211.894C537.301 210.668 539.298 209.891 541.159 209.557C543.02 209.223 544.567 209.352 545.814 209.945L542.29 216.597C540.273 215.827 537.983 216.175 535.42 217.64C534.112 218.39 533.083 219.255 532.353 220.223C531.617 221.191 531.256 222.172 531.276 223.154C531.297 224.019 531.658 224.517 532.374 224.653C533.083 224.789 534.377 224.585 536.245 224.04L538.037 223.569C540.886 222.745 543.054 222.704 544.533 223.44C546.012 224.183 546.775 225.723 546.823 228.068C546.864 230.01 546.4 232 545.439 234.031C544.478 236.062 543.115 237.991 541.343 239.818C539.578 241.644 537.506 243.239 535.127 244.602C532.81 245.931 530.622 246.776 528.564 247.131C526.506 247.485 524.699 247.349 523.146 246.708L526.526 239.906C529.259 240.833 532.101 240.445 535.059 238.748C536.552 237.889 537.717 236.901 538.562 235.776C539.401 234.658 539.816 233.554 539.789 232.477Z" fill="#2B3136"/>
<path d="M549.365 203.682L551.792 202.292L551.962 210.906L557.019 208.003L557.06 210.15L549.577 214.444L549.365 203.682Z" fill="#2B3136"/>
<path d="M558.982 200.335L555.533 202.312L555.492 200.165L564.782 194.835L564.823 196.982L561.388 198.952L561.558 207.567L559.145 208.95L558.975 200.335H558.982Z" fill="#2B3136"/>
<path d="M566.152 194.045L570.173 191.734C571.386 191.039 572.429 190.657 573.295 190.582C574.167 190.514 574.842 190.746 575.319 191.271C575.796 191.802 576.048 192.634 576.068 193.758C576.089 194.883 575.878 195.987 575.435 197.064C574.985 198.134 574.337 199.136 573.479 200.063C572.62 200.99 571.584 201.801 570.371 202.503L566.363 204.8L566.152 194.038V194.045ZM573.54 195.244C573.519 194.222 573.213 193.602 572.613 193.377C572.02 193.152 571.189 193.35 570.125 193.956L568.626 194.815L568.755 201.256L570.268 200.383C571.325 199.777 572.136 199.027 572.708 198.127C573.281 197.228 573.56 196.267 573.54 195.244Z" fill="#2B3136"/>
<path d="M572.585 149.424V138.437L567.521 141.402L323.608 282.067L84.9417 144.264L79.8368 141.293L79.8096 152.252L80.2253 152.497H80.2321L323.601 293.027V292.604V293.027L572.579 149.43V149.424H572.585Z" fill="#2B3136"/>
</svg>
