<?xml version="1.0" encoding="UTF-8"?>
<svg id="_Шар_1" data-name="Шар 1" xmlns="http://www.w3.org/2000/svg" xmlns:xlink="http://www.w3.org/1999/xlink" viewBox="0 0 1080 1080">
  <defs>
    <style>
      .cls-1 {
        fill: #2b3136;
      }

      .cls-2 {
        fill: #fff;
      }

      .cls-3 {
        fill: #111518;
      }

      .cls-4 {
        fill: #666f70;
      }

      .cls-5 {
        fill: url(#_Градієнт_без_назви_2);
      }
    </style>
    <linearGradient id="_Градієнт_без_назви_2" data-name="Градієнт без назви 2" x1="494.09" y1="736.58" x2="579.66" y2="736.58" gradientTransform="translate(0 1082) scale(1 -1)" gradientUnits="userSpaceOnUse">
      <stop offset="0" stop-color="#ef5829"/>
      <stop offset="1" stop-color="#111518"/>
    </linearGradient>
  </defs>
  <rect class="cls-2" x="57.28" y="244.34" width="968.23" height="591.83" rx="44.76" ry="44.76"/>
  <g>
    <path class="cls-1" d="M571.22,643.48l-34.38,19.87-.29-207.13,34.67-19.67v206.94Z"/>
    <path class="cls-3" d="M536.84,663.34l-34.3-19.84v-207.32l34.01,20.03.29,207.13Z"/>
    <path class="cls-4" d="M571.22,436.54l-34.67,19.67-34.01-20.03,34.39-19.36,34.29,19.72Z"/>
    <path class="cls-1" d="M457.51,617.51l-34.89-20.19v-205.63l34.79-19.68.1,245.5Z"/>
    <path class="cls-3" d="M422.63,597.33l-34.4-19.85-.39-205.32,34.78,19.54v205.63Z"/>
    <path class="cls-4" d="M457.41,372.01l-34.79,19.68-34.78-19.54,34.89-18.73,34.68,18.59Z"/>
    <path class="cls-1" d="M310.14,532.37l34.85,20.14-.02-116.76-34.85,18.51.02,78.1Z"/>
    <path class="cls-3" d="M275.36,512.28l34.75,20.06.05-78.07-34.61-18.96-.19,76.96Z"/>
    <path class="cls-4" d="M310.16,454.27l34.82-18.51-34.83-17.25-34.59,16.81,34.61,18.95Z"/>
    <path class="cls-1" d="M217.75,479.11l57.75-17.19-.1,50.38-57.65-33.19Z"/>
    <path class="cls-1" d="M536.69,730.45l-319.11-183.9.03-44.54,319.26,184.26-.18,44.19Z"/>
    <path class="cls-1" d="M536.69,730.45l326.21-188.18v-43.98s-326.04,188.06-326.04,188.06l-.17,44.1Z"/>
    <path class="cls-5" d="M536.88,302.63c-23.63,0-42.79,19.15-42.79,42.79s19.15,42.79,42.79,42.79,42.79-19.15,42.79-42.79-19.15-42.79-42.79-42.79ZM536.88,368.33c-12.67,0-22.93-10.26-22.93-22.93s10.26-22.93,22.93-22.93,22.93,10.26,22.93,22.93-10.26,22.93-22.93,22.93Z"/>
    <path class="cls-3" d="M131.96,501.93h-18.87v19.21h18.87v-19.21Z"/>
    <path class="cls-4" d="M162.33,501.93h-18.87v19.21h18.87v-19.21Z"/>
    <path class="cls-3" d="M190.54,501.93h-18.87v19.21h18.87v-19.21Z"/>
    <path class="cls-3" d="M908.34,497.73h-18.87v19.21h18.87v-19.21Z"/>
    <path class="cls-4" d="M938.69,497.73h-18.87v19.21h18.87v-19.21Z"/>
    <path class="cls-3" d="M966.91,497.73h-18.87v19.21h18.87v-19.21Z"/>
    <path class="cls-3" d="M862.96,475.01l-58.07-12.82.08,46.48,57.99-33.67Z"/>
    <path class="cls-3" d="M770.11,528.74l-34.7,20.25.05-113.23,34.58,18.49.07,74.49Z"/>
    <path class="cls-1" d="M804.95,508.65l-34.9,20.11-.04-74.49,34.88-18.95.06,73.33Z"/>
    <path class="cls-4" d="M770.02,454.28l-34.56-18.52,34.53-17.12,34.9,16.68-34.87,18.96Z"/>
    <path class="cls-3" d="M622.85,613.76l34.65-20.03.03-202.06-34.55-19.65-.12,241.75Z"/>
    <path class="cls-1" d="M657.5,593.73l34.63-20.05.42-201.53-35.05,19.51v202.06Z"/>
    <path class="cls-4" d="M622.98,372.01l34.53,19.67,35.04-19.53-35.11-18.74-34.46,18.6Z"/>
    <path class="cls-3" d="M239.55,602.9l-1.64-.95,11.69-27.12,9.9,5.73-16.25,33.41-9.83-5.69-14.88-51.43,10.4,6.03,10.61,40.04v-.02Z"/>
    <path class="cls-3" d="M264.23,583.3l9.58,5.54-.69,42.41-9.58-5.54.69-42.41Z"/>
    <path class="cls-3" d="M281.61,613.91l20.1,11.64-.13,8.52-20.1-11.64.13-8.52Z"/>
    <path class="cls-3" d="M309.36,632.54c.07-4.53.69-8.66,1.86-12.37,1.17-3.71,2.82-6.81,4.98-9.27l8.89,5.14c-2,2.78-3.53,6.04-4.61,9.78-1.08,3.74-1.65,7.79-1.72,12.16-.07,4.36.37,9.01,1.3,13.92.94,4.91,2.34,9.87,4.21,14.89l-8.89-5.14c-2.04-4.94-3.57-9.9-4.6-14.85-1.03-4.95-1.5-9.7-1.43-14.24h0Z"/>
    <path class="cls-3" d="M331.03,621.99l16.7,9.67c4.41,2.55,7.81,5.42,10.19,8.6,2.38,3.18,3.55,6.4,3.5,9.67-.03,1.82-.44,3.27-1.21,4.34s-1.85,1.66-3.21,1.77c-1.36.11-2.92-.3-4.69-1.24v-.63c3.53,2.17,6.28,4.8,8.25,7.88,1.96,3.09,2.92,6.21,2.87,9.4-.06,3.81-1.58,5.92-4.55,6.32-2.97.39-7.13-.95-12.47-4.04l-16.07-9.3.69-42.41h0ZM353.74,665.1c.03-1.87-.58-3.65-1.82-5.35-1.24-1.71-3.09-3.27-5.52-4.68l-11.16-6.46.11-6.74,10.4,6.02c1.26.73,2.37,1.16,3.32,1.28.96.13,1.68-.06,2.17-.57.49-.51.75-1.29.77-2.35.03-1.53-.45-2.99-1.43-4.39-.98-1.4-2.38-2.63-4.23-3.7l-6.18-3.58-.45,27.92,6.49,3.76c4.95,2.87,7.47,2.48,7.52-1.16h0Z"/>
    <path class="cls-3" d="M369.11,670.09l.42-25.82,9.58,5.54-.41,25.69c-.04,2.93.62,5.57,2.01,7.93,1.38,2.37,3.4,4.31,6.04,5.85,2.69,1.55,4.75,1.97,6.18,1.24,1.43-.73,2.17-2.56,2.22-5.49l.41-25.7,9.51,5.51-.42,25.82c-.06,3.69-.82,6.44-2.29,8.24-1.47,1.8-3.54,2.63-6.21,2.5-2.67-.13-5.85-1.27-9.55-3.41-3.7-2.14-6.85-4.68-9.48-7.6-2.62-2.93-4.63-6.12-6.02-9.58-1.38-3.45-2.05-7.02-1.99-10.72h0Z"/>
    <path class="cls-3" d="M412.64,669.24l9.58,5.54-.69,42.41-9.58-5.54.69-42.41Z"/>
    <path class="cls-3" d="M430.41,679.53l9.58,5.54-.54,33.96,19.97,11.57-.13,8.46-29.55-17.11.69-42.41h0Z"/>
    <path class="cls-3" d="M465.32,699.74l15.88,9.19c4.79,2.77,8.87,5.98,12.25,9.63,3.37,3.64,5.95,7.57,7.73,11.76,1.78,4.19,2.63,8.51,2.56,12.97-.07,4.45-1.04,7.74-2.93,9.86-1.88,2.12-4.54,3.03-8,2.75-3.45-.29-7.57-1.82-12.36-4.59l-15.82-9.16.69-42.41h0ZM493.71,737.55c.06-4.03-1.04-7.81-3.31-11.35-2.28-3.54-5.52-6.53-9.71-8.96l-5.93-3.43-.41,25.37,5.99,3.46c4.16,2.41,7.41,3.17,9.75,2.29,2.35-.89,3.55-3.35,3.61-7.37h0Z"/>
    <path class="cls-3" d="M512.72,750.28c.07-4.36-.37-9.01-1.3-13.91-.94-4.91-2.34-9.87-4.21-14.89l8.89,5.14c2.04,4.91,3.57,9.84,4.6,14.83,1.03,4.98,1.5,9.74,1.43,14.27-.07,4.53-.69,8.65-1.86,12.34-1.16,3.69-2.82,6.79-4.98,9.31l-8.89-5.14c2-2.79,3.53-6.04,4.61-9.78,1.08-3.74,1.65-7.79,1.72-12.16h0Z"/>
    <path class="cls-3" d="M544.04,735.98l15.45-8.87c4.43-2.54,7.94-3.4,10.55-2.56,2.6.84,3.94,3.27,4.03,7.31.05,2.7-.47,5.37-1.56,8.01-1.1,2.63-2.69,5.09-4.79,7.37-2.1,2.29-4.6,4.27-7.52,5.94l-11.14,6.39-.14-7.33,10-5.74c2-1.14,3.53-2.53,4.58-4.13,1.06-1.61,1.57-3.32,1.53-5.13-.04-1.86-.62-2.97-1.73-3.36-1.12-.37-2.66,0-4.61,1.12l-6.23,3.58.71-1.14.67,33.78-8.98,5.16-.8-40.39h0Z"/>
    <path class="cls-3" d="M579.85,715.42l15.51-8.9c4.43-2.54,7.93-3.41,10.51-2.61,2.58.8,3.91,3.2,3.99,7.2.05,2.62-.47,5.24-1.57,7.85-1.1,2.62-2.67,5.04-4.7,7.29-2.04,2.25-4.45,4.18-7.25,5.78l-11.5,6.6-.14-7.2,10.12-5.81c2-1.14,3.53-2.53,4.61-4.15,1.08-1.62,1.6-3.32,1.56-5.1-.04-1.82-.62-2.9-1.73-3.26-1.12-.36-2.68.04-4.67,1.18l-5.69,3.27.66,33.12-8.93,5.12-.8-40.39h0ZM593.17,730.19l9.04-5.19,10.3,12.51-9.94,5.7-9.41-13.03h0Z"/>
    <path class="cls-3" d="M614.44,715.96c-.06-3.03.4-6.12,1.39-9.28.99-3.16,2.42-6.25,4.3-9.26,1.87-3.02,4.09-5.78,6.62-8.3s5.3-4.63,8.29-6.35c3.03-1.74,5.85-2.81,8.44-3.22,2.6-.41,4.86-.2,6.79.6,1.93.8,3.44,2.2,4.53,4.19,1.09,1.99,1.67,4.5,1.72,7.52.05,3.03-.4,6.12-1.39,9.28-.99,3.16-2.41,6.23-4.27,9.22-1.86,2.99-4.05,5.75-6.59,8.28-2.53,2.54-5.32,4.68-8.35,6.42-3.03,1.74-5.84,2.81-8.42,3.2-2.58.4-4.84.2-6.79-.6-1.95-.79-3.47-2.19-4.57-4.18-1.09-1.98-1.67-4.49-1.72-7.52ZM623.97,710.5c.05,2.5.59,4.45,1.63,5.83,1.03,1.38,2.44,2.13,4.19,2.25,1.76.12,3.76-.47,5.99-1.76,2.23-1.29,4.21-2.97,5.93-5.09,1.71-2.11,3.05-4.42,4.01-6.93.95-2.51,1.41-5.02,1.37-7.52-.05-2.5-.6-4.44-1.63-5.83-1.04-1.38-2.44-2.13-4.2-2.25-1.76-.12-3.76.47-5.99,1.76-2.24,1.28-4.21,2.98-5.93,5.09-1.71,2.11-3.05,4.42-4.01,6.93-.96,2.51-1.41,5.02-1.36,7.51Z"/>
    <path class="cls-3" d="M673.56,688.52l-.53-26.58,9.1-5.22.54,27c.06,2.99-.45,5.87-1.53,8.65-1.08,2.79-2.63,5.34-4.66,7.67-2.03,2.33-4.52,4.35-7.48,6.04-5.03,2.89-9.24,3.51-12.62,1.86l5.09-9.23c1.84,1.15,4,1.01,6.47-.41,1.84-1.05,3.24-2.43,4.22-4.13.97-1.71,1.45-3.59,1.4-5.64h0Z"/>
    <path class="cls-3" d="M689.32,652.6l27.25-15.64.16,7.87-18.26,10.49.49,24.64,19.7-11.31.16,7.87-28.69,16.47-.8-40.39h0ZM694.19,666.08l18.21-10.45.14,7.27-18.21,10.45-.14-7.27Z"/>
    <path class="cls-3" d="M720.98,654.87c-.06-3.07.39-6.19,1.36-9.38.96-3.19,2.35-6.26,4.15-9.21,1.8-2.95,3.94-5.66,6.41-8.12,2.47-2.46,5.23-4.56,8.27-6.3,3.44-1.97,6.57-3.07,9.42-3.29,2.84-.22,5.15.43,6.92,1.94l-5.93,9.1c-1.23-1.12-2.65-1.68-4.24-1.63-1.6.04-3.41.64-5.44,1.81-2.28,1.3-4.28,3-6.02,5.08-1.74,2.08-3.07,4.36-4.02,6.86-.94,2.5-1.38,5.04-1.33,7.62.05,2.54.6,4.51,1.63,5.89,1.03,1.38,2.44,2.11,4.22,2.19,1.78.08,3.83-.54,6.14-1.87,2-1.14,3.79-2.62,5.39-4.41s3.08-4.03,4.44-6.69l5.98,2.02c-1.82,3.74-4.12,7.12-6.88,10.14-2.77,3.02-5.91,5.53-9.42,7.55-3.99,2.29-7.56,3.43-10.71,3.43s-5.63-1.09-7.45-3.26c-1.82-2.16-2.77-5.32-2.86-9.48h-.02Z"/>
    <path class="cls-3" d="M773.19,612.6l-12.93,7.43-.16-8.05,34.85-20,.16,8.05-12.87,7.39.64,32.33-9.04,5.19-.64-32.33h0Z"/>
    <path class="cls-3" d="M819.96,607.06c-.02-.88-.24-1.53-.68-1.94-.44-.4-1.15-.57-2.16-.51-1.01.07-2.36.37-4.04.88l-2.47.68c-3.45,1.04-6.1,1.14-7.96.31-1.86-.83-2.81-2.72-2.87-5.67-.04-2.46.51-4.99,1.67-7.57,1.16-2.59,2.81-5.01,4.94-7.27,2.13-2.27,4.64-4.22,7.52-5.87,2.79-1.61,5.41-2.62,7.85-3.06s4.46-.27,6.1.51l-4.61,8.71c-2.64-1.01-5.64-.55-9,1.37-1.71.98-3.06,2.11-4.02,3.38-.96,1.27-1.44,2.55-1.41,3.84.03,1.13.5,1.78,1.44,1.96.93.18,2.62-.09,5.07-.8l2.35-.62c3.73-1.08,6.57-1.13,8.51-.17,1.94.97,2.94,2.99,3,6.06.05,2.54-.55,5.15-1.81,7.81-1.26,2.66-3.04,5.19-5.36,7.58-2.31,2.39-5.02,4.48-8.14,6.26-3.03,1.74-5.9,2.85-8.59,3.31-2.7.46-5.06.29-7.1-.55l4.43-8.91c3.58,1.21,7.3.71,11.17-1.52,1.96-1.12,3.48-2.42,4.59-3.89,1.1-1.46,1.64-2.91,1.61-4.32Z"/>
    <path class="cls-3" d="M832.5,569.35l3.18-1.82.22,11.28,6.62-3.8.05,2.81-9.8,5.62-.28-14.09Z"/>
    <path class="cls-3" d="M845.1,564.97l-4.52,2.59-.05-2.81,12.17-6.98.05,2.81-4.5,2.58.22,11.28-3.16,1.81-.22-11.28h0Z"/>
    <path class="cls-3" d="M854.49,556.74l5.27-3.03c1.59-.91,2.95-1.41,4.09-1.51,1.14-.09,2.03.21,2.65.9.62.7.95,1.78.98,3.26.03,1.47-.25,2.92-.83,4.33-.59,1.4-1.44,2.71-2.56,3.93-1.12,1.21-2.48,2.28-4.07,3.2l-5.25,3.01-.28-14.09h0ZM864.16,558.31c-.03-1.34-.43-2.15-1.21-2.44-.78-.29-1.86-.04-3.26.76l-1.96,1.12.17,8.43,1.98-1.14c1.38-.79,2.45-1.78,3.2-2.95.75-1.18,1.12-2.44,1.09-3.78Z"/>
    <path class="cls-3" d="M862.91,498.3v-14.39l-6.63,3.88-319.41,184.2-312.54-180.46-6.69-3.89-.04,14.35.54.32h0l318.7,184.03v-.55.55l326.04-188.04h0s0,0,0,0Z"/>
  </g>
</svg>